<?xml version="1.0" standalone="no"?>
<!DOCTYPE svg PUBLIC "-//W3C//DTD SVG 20010904//EN"
 "http://www.w3.org/TR/2001/REC-SVG-20010904/DTD/svg10.dtd">
<svg version="1.0" xmlns="http://www.w3.org/2000/svg"
 width="260.000000pt" height="260.000000pt" viewBox="0 0 260.000000 260.000000"
 preserveAspectRatio="xMidYMid meet">
<metadata>
Created by potrace 1.14, written by Peter Selinger 2001-2017
</metadata>
<g transform="translate(0.000000,260.000000) scale(0.100000,-0.100000)"
fill="#000000" stroke="none">
<path d="M0 1300 l0 -1300 1300 0 1300 0 0 1300 0 1300 -1300 0 -1300 0 0
-1300z m604 932 c17 -16 67 -48 111 -73 43 -24 111 -73 150 -109 170 -159 185
-170 220 -170 l34 0 -15 51 c-13 42 -13 57 -3 83 20 52 38 66 82 66 42 0 116
30 137 56 19 22 30 17 30 -14 0 -23 8 -32 44 -50 l45 -21 38 26 c21 14 49 34
62 44 28 23 57 24 64 5 8 -20 -3 -85 -18 -116 -7 -14 -17 -48 -23 -76 -6 -29
-27 -78 -46 -110 -19 -31 -38 -76 -41 -98 -4 -23 -18 -76 -32 -120 -30 -91
-25 -121 32 -216 95 -157 178 -434 211 -700 12 -96 62 -172 139 -213 32 -17
66 -22 175 -27 143 -7 196 -22 225 -64 28 -39 13 -86 -27 -86 -11 0 -33 8 -51
17 -26 14 -55 17 -147 15 -63 -1 -133 3 -155 9 -41 11 -117 54 -168 96 -41 33
-79 29 -133 -12 -41 -32 -51 -35 -112 -35 -54 0 -70 -4 -90 -22 -23 -23 -27
-23 -270 -21 -136 1 -252 2 -258 3 -16 0 -25 40 -13 62 20 37 60 47 190 47
154 0 158 3 140 95 -7 35 -10 74 -6 86 5 14 -3 35 -23 68 -44 69 -52 114 -51
273 l2 142 -28 23 c-35 27 -73 35 -174 35 -83 0 -115 -8 -160 -42 -24 -18 -37
-20 -79 -14 -28 4 -55 12 -60 18 -17 22 -22 76 -9 89 7 7 16 20 19 30 7 16 97
48 136 48 12 0 33 5 49 11 15 6 72 14 125 18 54 4 100 10 103 13 3 3 6 63 7
134 1 141 -13 192 -64 244 -42 42 -223 264 -253 309 -16 23 -46 51 -67 62 -21
11 -47 34 -58 52 -10 18 -22 37 -27 42 -36 46 -36 45 -22 61 19 23 75 11 113
-24z"/>
</g>
</svg>
